<?xml version="1.0" standalone="no"?>
<!DOCTYPE svg PUBLIC "-//W3C//DTD SVG 20010904//EN"
 "http://www.w3.org/TR/2001/REC-SVG-20010904/DTD/svg10.dtd">
<svg version="1.0" xmlns="http://www.w3.org/2000/svg"
 width="652.000000pt" height="162.000000pt" viewBox="0 0 652.000000 162.000000"
 preserveAspectRatio="xMidYMid meet">
<metadata>
Created by potrace 1.16, written by Peter Selinger 2001-2019
</metadata>
<g transform="translate(0.000000,162.000000) scale(0.100000,-0.100000)"
fill="#000000" stroke="none">
<path d="M680 1603 c-47 -7 -190 -56 -190 -64 0 -5 -9 -9 -20 -9 -11 0 -20 -3
-20 -8 0 -4 -19 -16 -42 -26 -55 -23 -262 -231 -286 -287 -9 -21 -20 -39 -24
-39 -5 0 -8 -9 -8 -20 0 -11 -4 -20 -9 -20 -4 0 -21 -39 -37 -87 -26 -81 -28
-99 -28 -233 1 -116 5 -158 21 -210 26 -82 55 -150 65 -150 5 0 8 -7 8 -15 0
-9 8 -28 17 -43 27 -41 232 -242 249 -242 8 0 14 -4 14 -8 0 -5 12 -15 28 -23
15 -8 29 -16 32 -20 10 -11 108 -47 175 -65 95 -25 295 -25 380 -1 68 20 158
58 163 70 2 4 10 7 18 7 26 0 67 33 179 145 113 112 145 152 145 180 0 8 4 15
8 15 4 0 14 17 21 37 8 21 17 40 21 43 3 3 14 31 24 62 27 87 30 319 5 418
-47 186 -170 357 -336 466 -45 30 -91 54 -102 54 -12 0 -21 5 -21 10 0 6 -6
10 -13 10 -8 0 -28 7 -45 15 -71 36 -280 56 -392 38z m338 -374 c37 -20 88
-69 140 -133 15 -19 17 -246 2 -246 -5 0 -10 -6 -10 -12 0 -16 -49 -69 -93
-101 -48 -35 -100 -48 -224 -54 l-113 -6 0 -143 c0 -161 6 -150 -89 -153 -100
-2 -91 -48 -91 438 0 235 3 431 8 435 4 5 101 6 217 4 198 -5 212 -6 253 -29z"/>
<path d="M720 965 l0 -135 79 0 c44 0 83 5 86 10 3 6 13 10 21 10 8 0 28 13
45 29 41 40 49 93 21 148 -29 56 -70 73 -171 73 l-81 0 0 -135z"/>
<path d="M4006 1190 c-101 -39 -152 -121 -144 -230 8 -115 82 -169 312 -226
87 -22 130 -50 134 -88 9 -79 -35 -116 -141 -116 -93 0 -149 32 -162 91 -7 29
-7 29 -85 29 -43 0 -81 -4 -84 -9 -11 -18 30 -105 71 -151 65 -72 124 -94 253
-94 94 -1 111 2 165 27 112 52 145 100 145 209 0 135 -58 187 -270 243 -149
39 -170 53 -170 113 0 45 6 55 47 76 73 37 180 11 225 -54 28 -40 28 -40 92
-40 36 0 68 5 71 11 29 46 -69 174 -161 208 -75 28 -227 29 -298 1z"/>
<path d="M2058 805 l2 -395 80 0 79 0 3 128 3 127 115 5 c96 5 124 10 172 32
97 45 149 122 150 221 1 84 -20 136 -77 192 -75 75 -114 85 -344 85 l-186 0 3
-395z m362 250 c48 -25 64 -52 68 -121 5 -75 -8 -102 -61 -128 -48 -22 -192
-23 -201 0 -8 21 -8 259 0 267 10 10 167 -5 194 -18z"/>
<path d="M4580 817 c0 -295 3 -387 13 -401 10 -14 25 -16 82 -14 l70 3 1 170
c1 224 0 219 30 254 31 38 81 53 129 40 52 -15 65 -48 65 -166 0 -54 3 -142 7
-196 l6 -98 71 3 71 3 3 205 c3 238 -3 275 -59 331 -72 72 -188 71 -281 -2
l-37 -29 -6 44 c-4 24 -5 87 -3 140 l3 96 -82 0 -83 0 0 -383z"/>
<path d="M3375 996 c-91 -29 -149 -78 -184 -156 -16 -35 -21 -66 -21 -136 0
-112 13 -148 82 -220 62 -66 118 -89 210 -88 117 2 212 65 262 173 30 67 29
197 -2 266 -60 131 -215 203 -347 161z m129 -126 c14 -5 39 -28 56 -51 28 -39
30 -48 30 -132 l0 -90 -44 -43 c-37 -38 -49 -44 -84 -44 -88 0 -152 105 -138
223 14 113 91 171 180 137z"/>
<path d="M5465 1001 c-91 -24 -149 -71 -191 -153 -21 -41 -24 -61 -24 -145 0
-111 18 -164 73 -221 85 -89 227 -114 339 -59 61 30 96 65 131 131 18 34 22
57 22 141 0 90 -3 106 -29 158 -30 60 -79 107 -140 132 -44 19 -140 27 -181
16z m131 -140 c45 -28 74 -94 74 -170 0 -108 -53 -181 -132 -181 -36 0 -47 6
-83 44 -24 24 -45 57 -48 76 -35 172 72 302 189 231z"/>
<path d="M6203 999 c-18 -5 -51 -27 -72 -47 -42 -40 -51 -37 -51 14 0 24 -1
25 -72 22 l-73 -3 0 -405 0 -405 75 0 75 0 5 153 5 153 29 -30 c56 -58 153
-74 227 -35 42 21 125 120 138 165 20 66 24 132 12 188 -25 117 -81 192 -169
223 -52 19 -82 21 -129 7z m72 -137 c67 -41 98 -185 59 -268 -22 -45 -69 -84
-102 -84 -40 0 -94 33 -116 70 -25 42 -33 160 -14 215 25 73 109 106 173 67z"/>
<path d="M2995 985 c-16 -9 -42 -28 -57 -42 l-27 -25 -3 33 -3 34 -65 0 -65 0
0 -285 0 -285 73 -3 72 -3 0 172 c0 153 2 178 20 214 24 50 53 65 126 65 l55
0 -3 68 -3 67 -45 3 c-27 1 -57 -4 -75 -13z"/>
</g>
</svg>
